<svg width="28" height="30" viewBox="0 0 28 30" fill="none" xmlns="http://www.w3.org/2000/svg">
<g filter="url(#filter0_d)">
<path d="M14 2C11.6755 2.00824 9.42643 2.82602 7.63952 4.31277C5.85262 5.79952 4.63948 7.86234 4.20866 10.1466C3.77785 12.4309 4.15627 14.7939 5.27888 16.8293C6.40149 18.8648 8.19815 20.4456 10.36 21.3C10.26 20.51 10.19 19.3 10.39 18.43L11.56 13.46C11.56 13.46 11.26 12.86 11.26 11.98C11.26 10.59 12.07 9.56 13.08 9.56C13.93 9.56 14.35 10.2 14.35 10.96C14.35 11.82 13.8 13.1 13.51 14.29C13.27 15.29 14.01 16.1 15 16.1C16.78 16.1 18.14 14.23 18.14 11.53C18.14 9.13 16.42 7.47 13.96 7.47C13.3756 7.44433 12.792 7.53734 12.2446 7.74342C11.6971 7.94951 11.1971 8.26438 10.7746 8.66904C10.3522 9.07371 10.0162 9.55977 9.78678 10.0979C9.55739 10.636 9.43942 11.215 9.43998 11.8C9.43998 12.66 9.76998 13.58 10.18 14.08C10.26 14.18 10.27 14.27 10.24 14.37L9.95998 15.5C9.91998 15.68 9.80998 15.73 9.62998 15.64C8.36998 15.05 7.58998 13.24 7.58998 11.76C7.58998 8.61 9.88998 5.72 14.21 5.72C17.67 5.72 20.38 8.18 20.38 11.49C20.38 14.94 18.2 17.71 15.18 17.71C14.18 17.71 13.22 17.18 12.9 16.56L12.27 18.93C11.9748 19.8577 11.5579 20.7421 11.03 21.56C12.4038 21.9816 13.8524 22.1021 15.277 21.9133C16.7016 21.7245 18.0687 21.2309 19.2854 20.4661C20.502 19.7014 21.5395 18.6833 22.3272 17.4814C23.115 16.2795 23.6344 14.9219 23.8501 13.5011C24.0658 12.0804 23.9728 10.6298 23.5774 9.24822C23.1819 7.86664 22.4934 6.58652 21.5586 5.49506C20.6238 4.40359 19.4648 3.52642 18.1604 2.9233C16.8561 2.32017 15.437 2.00525 14 2Z" fill="white"/>
</g>
<defs>
<filter id="filter0_d" x="-2" y="0" width="32" height="32" filterUnits="userSpaceOnUse" color-interpolation-filters="sRGB">
<feFlood flood-opacity="0" result="BackgroundImageFix"/>
<feColorMatrix in="SourceAlpha" type="matrix" values="0 0 0 0 0 0 0 0 0 0 0 0 0 0 0 0 0 0 127 0"/>
<feOffset dy="4"/>
<feGaussianBlur stdDeviation="2"/>
<feColorMatrix type="matrix" values="0 0 0 0 0 0 0 0 0 0 0 0 0 0 0 0 0 0 0.25 0"/>
<feBlend mode="normal" in2="BackgroundImageFix" result="effect1_dropShadow"/>
<feBlend mode="normal" in="SourceGraphic" in2="effect1_dropShadow" result="shape"/>
</filter>
</defs>
</svg>
