<svg width="36" height="30" viewBox="0 0 36 30" fill="none" xmlns="http://www.w3.org/2000/svg">
<path d="M18.3326 0C17.8816 0 17.4905 0.156374 17.1604 0.469123L8.48928 8.68426H1.66737C1.21531 8.68426 0.825273 8.84064 0.495164 9.15339C0.165055 9.46614 0 9.83665 0 10.2639V19.7361C0 20.1633 0.165055 20.5339 0.495164 20.8466C0.825273 21.1594 1.21636 21.3157 1.66737 21.3157H8.48928L17.1604 29.5309C17.4905 29.8436 17.8806 30 18.3326 30C18.7847 30 19.1747 29.8436 19.5048 29.5309C19.8349 29.2181 20 28.8486 20 28.4203V1.57968C20 1.15239 19.8349 0.781873 19.5059 0.469123C19.1768 0.156374 18.7857 0 18.3337 0H18.3326Z" fill="#B3B3B3"/>
</svg>
